# xmcd
#
# Track frame offsets: 
#        150
#        10600
#        22422
#        32895
#        44530
#        54875
#        67700
#        78987
#        91530
#        104830
#        126225
#        140390
#        153505
#        168522
#        183940
#        211395
#        225172
#        263960
#        287852
#        300820
#
# Disc length: 4197 seconds
#
# Revision: 8
# Processed by: cddbd v1.5.2PL0 Copyright (c) Steve Scherf et al.
# Submitted via: ExactAudioCopyFreeDBPlugin 1.0
#
DISCID=03106314
DTITLE=Various Artist - The Philly Sound:  Kenny Gamble, Leon Huff and 
DTITLE=The Story of Brotherly Love (1966-1976) [box set]
DYEAR=1997
DGENRE=Soul
TTITLE0=The Soul Survivors - Expressway to Your Heart
TTITLE1=The Intruders - Cowboys to Girls
TTITLE2=Archie Bell and The Drells - I Can't Stop Dancing
TTITLE3=Jerry Butler - Only the Strong Survive
TTITLE4=The O'Jays - One Night Affair
TTITLE5=The Intruders - (We'll Be) United
TTITLE6=Dusty Springfield - Silly, Silly Fool
TTITLE7=Wilson Pickett - Don't Let the Green Grass Fool You
TTITLE8=Johnny Williams - Slow Motion, Part 1
TTITLE9=Billy Paul - Me and Mrs. Jones
TTITLE10=Bunny Sigler - Regina
TTITLE11=Laura Nyro and Labelle - The Bells
TTITLE12=Joe Simon - Drowning in the Sea of Love
TTITLE13=Harold Melvin and The Blue Notes - If You Don't Know Me By Now
TTITLE14=The O'Jays - 992 Arguments
TTITLE15=The Ebonys - You're the Reason Why
TTITLE16=Harold Melvin and The Blue Notes - I Miss You
TTITLE17=The O'Jays - When the World's at Peace
TTITLE18=Bunny Sigler - That's How Long I'll Be Loving You
TTITLE19=The O'Jays - Back Stabbers
EXTD=
EXTT0=
EXTT1=
EXTT2=
EXTT3=
EXTT4=
EXTT5=
EXTT6=
EXTT7=
EXTT8=
EXTT9=
EXTT10=
EXTT11=
EXTT12=
EXTT13=
EXTT14=
EXTT15=
EXTT16=
EXTT17=
EXTT18=
EXTT19=
PLAYORDER=
